<svg width="26" height="24" viewBox="0 0 26 24" fill="none" xmlns="http://www.w3.org/2000/svg">
<path d="M13.1584 6.10992C12.3678 6.10992 11.5949 6.32579 10.9375 6.73023C10.2801 7.13466 9.76775 7.7095 9.46518 8.38205C9.16262 9.05461 9.08346 9.79466 9.2377 10.5086C9.39195 11.2226 9.77267 11.8784 10.3317 12.3932C10.8908 12.9079 11.6031 13.2585 12.3785 13.4005C13.154 13.5425 13.9578 13.4696 14.6882 13.1911C15.4187 12.9125 16.043 12.4407 16.4822 11.8354C16.9215 11.2302 17.1559 10.5185 17.1559 9.79058C17.1559 8.81441 16.7348 7.87822 15.9851 7.18796C15.2354 6.49771 14.2186 6.10992 13.1584 6.10992ZM13.1584 11.999C12.684 11.999 12.2203 11.8695 11.8259 11.6268C11.4314 11.3841 11.124 11.0392 10.9425 10.6357C10.7609 10.2322 10.7134 9.78813 10.806 9.35974C10.8985 8.93136 11.127 8.53786 11.4624 8.22901C11.7978 7.92016 12.2252 7.70983 12.6905 7.62462C13.1558 7.53941 13.638 7.58314 14.0763 7.75029C14.5146 7.91744 14.8892 8.20049 15.1527 8.56366C15.4163 8.92683 15.5569 9.3538 15.5569 9.79058C15.5562 10.3761 15.3033 10.9374 14.8536 11.3514C14.404 11.7654 13.7943 11.9983 13.1584 11.999Z" fill="#D9B0B0"/>
<path d="M13.1584 1.69208C10.9446 1.69208 8.78056 2.29658 6.93987 3.42913C5.09918 4.56168 3.66454 6.17142 2.81736 8.05479C1.97018 9.93816 1.74852 12.0106 2.18041 14.0099C2.6123 16.0093 3.67833 17.8458 5.24371 19.2873C6.80909 20.7288 8.8035 21.7104 10.9747 22.1081C13.146 22.5058 15.3965 22.3017 17.4418 21.5216C19.4871 20.7415 21.2352 19.4204 22.4651 17.7254C23.695 16.0304 24.3515 14.0377 24.3515 11.9991C24.3481 9.26647 23.1678 6.64662 21.0694 4.71434C18.971 2.78206 16.126 1.69516 13.1584 1.69208ZM8.36138 19.6385V18.6251C8.36208 18.0395 8.615 17.4781 9.06466 17.064C9.51431 16.65 10.124 16.4171 10.7599 16.4164H15.5569C16.1928 16.4171 16.8025 16.65 17.2522 17.064C17.7018 17.4781 17.9547 18.0395 17.9554 18.6251V19.6385C16.4997 20.4212 14.8442 20.8337 13.1584 20.8337C11.4726 20.8337 9.81714 20.4212 8.36138 19.6385ZM19.5484 18.5705C19.5326 17.6047 19.1052 16.6834 18.3586 16.0051C17.612 15.3267 16.6058 14.9456 15.5569 14.944H10.7599C9.71102 14.9456 8.70484 15.3267 7.95821 16.0051C7.21157 16.6834 6.78426 17.6047 6.76836 18.5705C5.31851 17.3783 4.29608 15.8088 3.83645 14.0697C3.37681 12.3306 3.50166 10.504 4.19447 8.83167C4.88727 7.15936 6.11534 5.72027 7.71607 4.70495C9.3168 3.68963 11.2147 3.14598 13.1584 3.14598C15.1021 3.14598 17 3.68963 18.6007 4.70495C20.2015 5.72027 21.4295 7.15936 22.1223 8.83167C22.8151 10.504 22.94 12.3306 22.4804 14.0697C22.0207 15.8088 20.9983 17.3783 19.5484 18.5705Z" fill="#D9B0B0"/>
</svg>
