<svg width="44" height="24" viewBox="0 0 44 24" fill="none" xmlns="http://www.w3.org/2000/svg">
<path d="M1.88571 10.6667C0.844246 10.6667 0 11.2637 0 12C0 12.7364 0.844246 13.3333 1.88571 13.3333V10.6667ZM42.1143 13.3333C43.1557 13.3333 44 12.7364 44 12C44 11.2637 43.1557 10.6667 42.1143 10.6667V13.3333ZM1.88571 0C0.844246 0 0 0.59696 0 1.33333C0 2.06971 0.844246 2.66666 1.88571 2.66666V0ZM42.1143 2.66666C43.1557 2.66666 44 2.06971 44 1.33333C44 0.59696 43.1557 0 42.1143 0V2.66666ZM1.88571 21.3333C0.844246 21.3333 0 21.9303 0 22.6667C0 23.403 0.844246 24 1.88571 24V21.3333ZM42.1143 24C43.1557 24 44 23.403 44 22.6667C44 21.9303 43.1557 21.3333 42.1143 21.3333V24ZM1.88571 13.3333H42.1143V10.6667H1.88571V13.3333ZM1.88571 2.66666H42.1143V0H1.88571V2.66666ZM1.88571 24H42.1143V21.3333H1.88571V24Z" fill="#D9B0B0"/>
</svg>
