<svg width="20" height="22" viewBox="0 0 20 22" fill="none" xmlns="http://www.w3.org/2000/svg">
<path d="M14.7551 13.9784C17.2916 12.5856 19.2147 11.5243 19.3804 11.4418C19.9106 11.1598 20.4582 10.4135 19.3804 9.8338C19.0324 9.65155 17.1589 8.62324 14.7551 7.29724L11.4227 10.6625L14.7551 13.9784Z" fill="#FFD900"/>
<path d="M11.4228 10.6625L0.812267 21.3563C1.06131 21.3892 1.3425 21.3233 1.674 21.141C2.36999 20.76 9.74794 16.7309 14.7551 13.9791L11.4228 10.6625Z" fill="#F43249"/>
<path d="M11.4227 10.6626L14.7551 7.31377C14.7551 7.31377 2.42028 0.582326 1.67399 0.184855C1.3928 0.01828 1.07779 -0.0311977 0.795765 0.01828L11.4227 10.6626Z" fill="#00EE76"/>
<path d="M11.4227 10.6626L0.795766 0.0183105C0.364486 0.118091 0 0.499069 0 1.27834V20.0964C0 20.8097 0.282023 21.3234 0.812259 21.3729L11.4227 10.6626Z" fill="#00D3FF"/>
</svg>
