<svg width="26" height="24" viewBox="0 0 26 24" fill="none" xmlns="http://www.w3.org/2000/svg">
<path d="M12.4062 22.6867C5.6823 22.6867 0.207947 17.6454 0.207947 11.4534C0.207947 5.26134 5.6823 0.220032 12.4062 0.220032C19.1302 0.220032 24.6045 5.26134 24.6045 11.4534C24.6045 17.6454 19.1302 22.6867 12.4062 22.6867ZM12.4062 1.86394C6.65817 1.86394 1.99306 6.17097 1.99306 11.4534C1.99306 16.7358 6.65817 21.0428 12.4062 21.0428C18.1543 21.0428 22.8194 16.7358 22.8194 11.4534C22.8194 6.17097 18.1543 1.86394 12.4062 1.86394Z" fill="#D9B0B0"/>
<path d="M24.9025 23.7812C24.6764 23.7812 24.4503 23.7045 24.2717 23.5402L21.8916 21.3494C21.5465 21.0318 21.5465 20.506 21.8916 20.1883C22.2367 19.8707 22.808 19.8707 23.1531 20.1883L25.5332 22.3791C25.8784 22.6968 25.8784 23.2225 25.5332 23.5402C25.3547 23.7045 25.1286 23.7812 24.9025 23.7812Z" fill="#D9B0B0"/>
</svg>
