<svg width="34" height="31" viewBox="0 0 34 31" fill="none" xmlns="http://www.w3.org/2000/svg">
<path d="M33.3197 0.47972C33.0502 0.244387 32.7221 0.0881102 32.371 0.0278368C32.0199 -0.0324367 31.6592 0.00559379 31.3279 0.137804L1.24091 12.0839C0.847598 12.2401 0.514896 12.5208 0.292586 12.884C0.0702761 13.2472 -0.0296872 13.6734 0.00765479 14.0988C0.0449968 14.5242 0.217636 14.9259 0.499739 15.2439C0.781841 15.5619 1.15824 15.779 1.57261 15.8627L9.7391 17.5136V27.7014C9.73502 28.0933 9.84812 28.4774 10.0636 28.8033C10.2791 29.1292 10.5869 29.3817 10.9467 29.5279C11.1878 29.6299 11.4464 29.6828 11.7078 29.6835C11.9632 29.6827 12.2159 29.6306 12.4512 29.5303C12.6865 29.43 12.8998 29.2835 13.0787 29.0993L17.7405 24.3877L24.619 30.5054C24.9734 30.8235 25.4309 30.9995 25.9049 31C26.111 30.9998 26.3158 30.9669 26.5118 30.9027C26.8351 30.799 27.1259 30.6115 27.3551 30.3589C27.5843 30.1062 27.744 29.7972 27.8181 29.4627L33.95 2.41971C34.0301 2.06899 34.0137 1.70282 33.9026 1.36086C33.7915 1.0189 33.5899 0.714185 33.3197 0.47972ZM1.30674 13.9822C1.29052 13.8399 1.32228 13.6961 1.39688 13.5743C1.47149 13.4524 1.58458 13.3595 1.71788 13.3106L29.2973 2.36013L10.24 16.2706L1.82836 14.5703C1.68863 14.5459 1.56114 14.4746 1.46649 14.3679C1.37183 14.2611 1.31555 14.1253 1.30674 13.9822ZM12.1564 28.1673C12.0652 28.2595 11.9491 28.3223 11.8226 28.3477C11.6961 28.3731 11.565 28.3601 11.4458 28.3102C11.3267 28.2603 11.2248 28.1759 11.1532 28.0675C11.0815 27.9591 11.0433 27.8317 11.0433 27.7014V18.4311L16.7595 23.5152L12.1564 28.1673ZM32.6788 2.12526L26.5469 29.1683C26.5217 29.2796 26.4683 29.3823 26.3919 29.4664C26.3156 29.5506 26.2189 29.6133 26.1114 29.6483C26.0039 29.6833 25.8892 29.6895 25.7786 29.6663C25.668 29.6431 25.5653 29.5912 25.4805 29.5158L11.4354 17.0241L32.5734 1.59485C32.629 1.66971 32.6674 1.7562 32.6856 1.84798C32.7038 1.93976 32.7015 2.0345 32.6788 2.12526Z" fill="black"/>
</svg>
