<svg width="34" height="24" viewBox="0 0 34 24" fill="none" xmlns="http://www.w3.org/2000/svg">
<path d="M0 0H8.93732L8.91568 1.06046C8.91402 1.14467 8.91302 1.2438 8.91302 1.34323C8.91302 5.59478 10.6527 9.30285 13.2317 11.2635L13.2738 11.2929V5.47802L11.8057 3.41083V0H20.7229V9.81909H21.0969C22.7939 7.48024 24.1155 4.64068 24.9254 1.483L24.9606 1.32512L25.2913 4.47262e-05H32.7481L32.045 3.76439C31.3655 7.29655 30.1038 10.3542 28.3998 12.8653L28.4116 12.8475C28.8938 13.4533 29.3992 14.0465 29.8906 14.6233C31.3981 16.2539 32.7085 18.0887 33.8275 20.1233L33.8702 20.2046L34 20.4651V23.7519H25.4227L25.2095 23.1792C24.3409 20.8906 23.001 19.0646 21.3607 17.8923L21.3119 17.8604H20.7246V23.7725H16.9999C16.9559 23.7731 16.9037 23.7734 16.8515 23.7734C11.4897 23.7734 6.74802 20.2224 3.86915 14.7827L3.83581 14.7163C1.68605 10.9277 0.289962 6.23071 0.00385155 1.11989L0 1.03373V0ZM7.38263 2.06719H1.58564C2.04624 6.41928 3.28863 10.2972 5.11592 13.5545L5.08146 13.4903C7.71944 18.4845 12.0178 21.706 16.8787 21.706C16.9213 21.706 16.9639 21.7057 17.0065 21.7052H16.9999H19.1791V15.7931H21.6796L21.8419 15.9006C23.7657 17.2081 25.3123 19.1909 26.341 21.6181L26.3685 21.6887H32.4545V21.0975C31.3924 19.2514 30.2154 17.6377 28.9121 16.2237L28.8722 16.1817C28.1721 15.3549 27.4488 14.5114 26.778 13.6123L26.231 12.8805L26.7765 12.1488C28.5579 9.76504 29.8733 6.75805 30.524 3.39333L30.5459 3.25992L30.7685 2.06515H26.4118C25.4463 5.79752 23.9233 8.98406 21.9638 11.5828L21.9624 11.5845L21.7368 11.8842H19.1791V2.0671H13.3528V2.58388L14.821 4.65107V14.4309L13.7685 13.883C10.1575 11.9545 7.60761 7.44395 7.38392 2.10228L7.38276 2.0671L7.38263 2.06719Z" fill="black"/>
</svg>
