<svg width="34" height="34" viewBox="0 0 34 34" fill="none" xmlns="http://www.w3.org/2000/svg">
<path d="M17 26.5724C16.6728 26.5724 8.96608 26.5661 6.92538 26.0192C6.26889 25.8428 5.67028 25.497 5.18955 25.0164C4.70881 24.5358 4.36282 23.9373 4.18625 23.2808C3.63942 21.2394 3.63304 17.1757 3.63304 17.0036C3.63304 16.8314 3.63942 12.7677 4.18625 10.727C4.36284 10.0704 4.70891 9.47172 5.18978 8.99098C5.67064 8.51024 6.26941 8.16432 6.92608 7.9879C8.96608 7.44107 16.6728 7.43469 17 7.43469C17.3273 7.43469 25.0339 7.44107 27.0753 7.9879C27.7318 8.1645 28.3304 8.51048 28.8112 8.9912C29.2919 9.47193 29.6379 10.0705 29.8145 10.727C30.3606 12.7677 30.367 16.8314 30.367 17.0036C30.367 17.1757 30.3606 21.2394 29.8145 23.2808C29.6378 23.9372 29.2917 24.5356 28.811 25.0162C28.3303 25.4968 27.7318 25.8427 27.0753 26.0192C25.0339 26.5661 17.3273 26.5724 17 26.5724ZM17 8.84994C14.824 8.84994 8.83787 8.94061 7.29229 9.35498C6.8759 9.46688 6.49621 9.68623 6.19127 9.99105C5.88632 10.2959 5.66682 10.6755 5.55475 11.0918C5.05608 12.9533 5.04971 16.9625 5.04971 17.0029C5.04971 17.0432 5.05608 21.0524 5.55475 22.9139C5.66682 23.3301 5.88624 23.7096 6.19104 24.0144C6.49585 24.3192 6.87535 24.5387 7.29158 24.6507C8.83858 25.0651 14.824 25.1558 17 25.1558C19.176 25.1558 25.1621 25.0651 26.7084 24.6507C27.1248 24.5388 27.5045 24.3195 27.8094 24.0147C28.1144 23.7098 28.3339 23.3303 28.446 22.9139C28.9439 21.0524 28.9503 17.0432 28.9503 17.0029C28.9503 16.9625 28.9439 12.9533 28.446 11.0925V11.0918C28.3339 10.6755 28.1144 10.2959 27.8094 9.99105C27.5045 9.68623 27.1248 9.46688 26.7084 9.35498C25.1621 8.94061 19.176 8.84994 17 8.84994Z" fill="black"/>
<path d="M14.795 21.2365C14.6071 21.2365 14.4269 21.1619 14.2941 21.0291C14.1613 20.8962 14.0866 20.7161 14.0866 20.5282V13.4782C14.0862 13.3537 14.1187 13.2312 14.1807 13.1233C14.2428 13.0154 14.3323 12.9258 14.4401 12.8635C14.5479 12.8013 14.6703 12.7686 14.7948 12.7688C14.9193 12.769 15.0415 12.8021 15.1491 12.8647L21.2543 16.3901C21.3619 16.4523 21.4513 16.5417 21.5135 16.6494C21.5757 16.7571 21.6084 16.8792 21.6084 17.0035C21.6084 17.1279 21.5757 17.25 21.5135 17.3577C21.4513 17.4654 21.3619 17.5548 21.2543 17.6169L15.1491 21.1423C15.0412 21.2039 14.9192 21.2363 14.795 21.2365ZM15.5033 14.705V19.3007L19.4834 17.0028L15.5033 14.705Z" fill="black"/>
</svg>
