<svg width="37" height="40" viewBox="0 0 37 40" fill="none" xmlns="http://www.w3.org/2000/svg">
<mask id="mask0_38_92" style="mask-type:alpha" maskUnits="userSpaceOnUse" x="0" y="0" width="37" height="40">
<rect y="0.0578613" width="37" height="39.5546" fill="#D9D9D9"/>
</mask>
<g mask="url(#mask0_38_92)">
<path d="M23.7418 29.6414C23.0481 29.6688 22.3864 29.6894 21.7569 29.7032C21.1274 29.7169 20.5686 29.7238 20.0804 29.7238H18.5002C16.6759 29.7238 14.9672 29.6963 13.3741 29.6414C12.0123 29.5864 10.6698 29.5109 9.34652 29.4147C8.02325 29.3186 7.06613 29.1881 6.47516 29.0233C5.80711 28.831 5.22898 28.474 4.74079 27.9521C4.25259 27.4302 3.91857 26.8121 3.7387 26.0979C3.58454 25.4662 3.46249 24.697 3.37256 23.7906C3.28263 22.8841 3.21197 22.0189 3.16058 21.1948C3.10919 20.2059 3.0835 19.2034 3.0835 18.187C3.0835 17.1707 3.10919 16.1681 3.16058 15.1792C3.21197 14.3552 3.28263 13.4899 3.37256 12.5835C3.46249 11.677 3.58454 10.9079 3.7387 10.2761C3.91857 9.56192 4.25259 8.94388 4.74079 8.42198C5.22898 7.90008 5.80711 7.54299 6.47516 7.35071C7.06613 7.1859 8.02325 7.05543 9.34652 6.95929C10.6698 6.86315 12.0123 6.78761 13.3741 6.73267C14.9672 6.67774 16.6759 6.65027 18.5002 6.65027C20.3245 6.65027 22.0331 6.67774 23.6262 6.73267C24.988 6.78761 26.3305 6.86315 27.6538 6.95929C28.9771 7.05543 29.9342 7.1859 30.5252 7.35071C31.1932 7.54299 31.7713 7.90008 32.2595 8.42198C32.7477 8.94388 33.0818 9.56192 33.2616 10.2761C33.4158 10.9079 33.5378 11.677 33.6278 12.5835C33.7177 13.4899 33.7884 14.3552 33.8397 15.1792C33.8911 16.1681 33.9168 17.1707 33.9168 18.187V18.8875C33.4286 18.6677 32.9276 18.496 32.4137 18.3724C31.8998 18.2488 31.3731 18.187 30.8335 18.187C28.7009 18.187 26.883 18.9905 25.3799 20.5974C23.8767 22.2043 23.1252 24.1477 23.1252 26.4276C23.1252 27.0044 23.1766 27.5606 23.2793 28.0963C23.3821 28.6319 23.5363 29.1469 23.7418 29.6414ZM15.4168 23.1313L23.4335 18.187L15.4168 13.2427V23.1313ZM29.2918 31.3719V28.0757H26.2085V24.7794H29.2918V21.4832H32.3752V24.7794H35.4585V28.0757H32.3752V31.3719H29.2918Z" fill="#1C1B1F"/>
</g>
</svg>
